<?xml version="1.0" encoding="UTF-8" standalone="no"?>
<svg
   xmlns:dc="http://purl.org/dc/elements/1.1/"
   xmlns:cc="http://creativecommons.org/ns#"
   xmlns:rdf="http://www.w3.org/1999/02/22-rdf-syntax-ns#"
   xmlns:svg="http://www.w3.org/2000/svg"
   xmlns="http://www.w3.org/2000/svg"
   xmlns:sodipodi="http://sodipodi.sourceforge.net/DTD/sodipodi-0.dtd"
   xmlns:inkscape="http://www.inkscape.org/namespaces/inkscape"
   data-name="Layer 1"
   width="813.68918"
   height="551.12771"
   viewBox="0 0 813.68918 551.12771"
   version="1.1"
   id="svg130"
   sodipodi:docname="pouring-beer.svg"
   inkscape:version="1.0 (4035a4fb49, 2020-05-01)">
  <metadata
     id="metadata136">
    <rdf:RDF>
      <cc:Work
         rdf:about="">
        <dc:format>image/svg+xml</dc:format>
        <dc:type
           rdf:resource="http://purl.org/dc/dcmitype/StillImage" />
      </cc:Work>
    </rdf:RDF>
  </metadata>
  <defs
     id="defs134" />
  <sodipodi:namedview
     inkscape:document-rotation="0"
     pagecolor="#ffffff"
     bordercolor="#666666"
     borderopacity="1"
     objecttolerance="10"
     gridtolerance="10"
     guidetolerance="10"
     inkscape:pageopacity="0"
     inkscape:pageshadow="2"
     inkscape:window-width="1920"
     inkscape:window-height="986"
     id="namedview132"
     showgrid="false"
     inkscape:zoom="0.7257846"
     inkscape:cx="526.04994"
     inkscape:cy="365.89322"
     inkscape:window-x="-11"
     inkscape:window-y="-11"
     inkscape:window-maximized="1"
     inkscape:current-layer="svg130" />
  <path
     d="m 350.53626,529.01964 c -32.5042,-14.96151 -59.18375,-46.5294 -59.94159,-82.30322 a 164.86264,164.86264 0 0 0 107.87707,34.2689 c 14.99067,-0.69683 31.59135,-3.03276 43.62924,5.92814 7.49037,5.57553 11.67061,14.72113 13.1732,23.93681 1.50243,9.21616 0.62161,18.63449 -0.26256,27.93038 l 0.87191,2.16183 c -35.56894,3.9012 -72.84307,3.03868 -105.34727,-11.92284 z"
     fill="#f0f0f0"
     id="path2" />
  <path
     d="m 291.33632,446.59947 a 140.91319,140.91319 0 0 0 64.9739,57.40185 60.68214,60.68214 0 0 0 18.31719,5.096 34.80383,34.80383 0 0 0 18.00608,-3.36127 c 5.26682,-2.42023 10.37392,-5.50577 16.13734,-6.60357 a 21.31049,21.31049 0 0 1 16.89548,4.276 c 5.9908,4.48964 10.01113,10.86414 13.726,17.23448 4.12469,7.07306 8.2969,14.4851 15.263,19.148 0.844,0.565 -0.082,1.84162 -0.92474,1.27749 -12.11987,-8.11271 -15.58511,-23.4813 -25.64539,-33.48206 -4.69431,-4.66654 -10.82338,-7.94667 -17.605,-7.125 -5.93022,0.71848 -11.19943,3.89582 -16.511,6.39244 a 37.13841,37.13841 0 0 1 -17.48363,3.94258 56.09908,56.09908 0 0 1 -18.44553,-4.37291 136.71118,136.71118 0 0 1 -36.571,-22.09675 143.4121,143.4121 0 0 1 -31.576,-37.09093 c -0.51542,-0.87129 0.9312,-1.50194 1.44325,-0.63634 z"
     fill="#ffffff"
     id="path4" />
  <path
     d="m 347.34309,500.70664 a 21.14146,21.14146 0 0 1 -25.97992,8.63067 c -0.93968,-0.38289 -0.38883,-1.86108 0.55209,-1.47768 a 19.57654,19.57654 0 0 0 24.15033,-8.07777 c 0.52268,-0.86983 1.79718,0.0599 1.27749,0.92473 z"
     fill="#ffffff"
     id="path6" />
  <path
     d="m 390.12459,507.31486 a 40.74844,40.74844 0 0 0 -16.85577,-24.449 c -0.842,-0.56795 0.0837,-1.84475 0.92473,-1.27749 a 42.38455,42.38455 0 0 1 17.48825,25.477 c 0.22956,0.99052 -1.3289,1.23458 -1.55721,0.24943 z"
     fill="#ffffff"
     id="path8" />
  <path
     d="m 310.77259,472.91214 a 11.96709,11.96709 0 0 0 2.88562,-10.9826 c -0.242,-0.98712 1.31678,-1.23013 1.55721,-0.24943 a 13.41012,13.41012 0 0 1 -3.16534,12.15676 0.815,0.815 0 0 1 -1.10111,0.17638 0.79252,0.79252 0 0 1 -0.17638,-1.10111 z"
     fill="#ffffff"
     id="path10" />
  <path
     d="m 382.29859,367.5453 c 0.16864,0.61208 0.33728,1.22416 0.51842,1.84089 a 157.59919,157.59919 0 0 0 8.89147,23.969 c 0.26945,0.60251 0.55159,1.20906 0.8378,1.80258 a 166.14551,166.14551 0 0 0 36.14743,49.3468 161.34872,161.34872 0 0 0 19.11658,15.3477 c 9.3254,6.385 19.94453,12.566 26.42525,21.39875 a 27.68076,27.68076 0 0 1 1.884,2.86126 l -17.6663,55.59885 c -0.10355,0.1062 -0.19469,0.217 -0.29845,0.32387 l -0.60385,2.25214 c -0.3649,-0.21414 -0.73875,-0.44409 -1.10364,-0.65823 -0.21219,-0.12333 -0.42044,-0.25906 -0.63262,-0.3824 -0.14021,-0.0861 -0.2803,-0.17294 -0.41175,-0.24267 -0.0468,-0.0285 -0.0934,-0.0576 -0.12751,-0.0821 -0.13145,-0.0697 -0.24614,-0.14845 -0.36489,-0.21414 q -3.13992,-1.91931 -6.26378,-3.88945 c -0.0127,-0.004 -0.0127,-0.004 -0.0215,-0.0204 -15.84265,-10.04813 -30.98562,-21.50714 -43.90794,-34.90027 -0.38865,-0.40308 -0.79019,-0.80958 -1.17077,-1.23805 A 153.961,153.961 0 0 1 387.74275,481.1271 136.10794,136.10794 0 0 1 380.60598,469.34863 113.18414,113.18414 0 0 1 368.96304,435.9302 c -4.19237,-23.28665 -0.89058,-47.65488 12.31235,-66.92266 0.33808,-0.49268 0.67237,-0.97361 1.0232,-1.46224 z"
     fill="#f0f0f0"
     id="path12" />
  <path
     d="m 382.96451,367.89451 a 140.91324,140.91324 0 0 0 17.31813,84.95094 60.682,60.682 0 0 0 11.55714,15.097 34.80388,34.80388 0 0 0 16.40057,8.15713 c 5.6624,1.23856 11.59785,1.84976 16.86057,4.4432 a 21.31052,21.31052 0 0 1 10.91567,13.58647 c 2.08024,7.19161 1.45236,14.7018 0.58312,22.0248 -0.96513,8.13079 -2.09642,16.56085 0.65824,24.478 0.33376,0.95928 -1.17423,1.42107 -1.50749,0.46325 -4.79262,-13.77454 1.69353,-28.13182 -0.31789,-42.17385 -0.93857,-6.55227 -3.85743,-12.8614 -9.76684,-16.28837 -5.16753,-2.99674 -11.28768,-3.63224 -17.03182,-4.83677 a 37.13845,37.13845 0 0 1 -16.3334,-7.37842 56.099,56.099 0 0 1 -12.09493,-14.597 136.71108,136.71108 0 0 1 -15.89612,-39.66128 143.41213,143.41213 0 0 1 -2.88038,-48.626 c 0.113,-1.006 1.64778,-0.63857 1.53548,0.36085 z"
     fill="#ffffff"
     id="path14" />
  <path
     d="m 395.10652,444.81601 a 21.14147,21.14147 0 0 1 -25.93977,-8.75061 c -0.51976,-0.87146 0.81,-1.72007 1.33048,-0.84745 a 19.57654,19.57654 0 0 0 24.146,8.09057 c 0.941,-0.37982 1.39889,1.12983 0.46325,1.50749 z"
     fill="#ffffff"
     id="path16" />
  <path
     d="m 425.28659,475.84975 a 40.74849,40.74849 0 0 0 1.26158,-29.66949 c -0.33036,-0.96042 1.17753,-1.42251 1.50748,-0.46325 a 42.38456,42.38456 0 0 1 -1.37554,30.87112 c -0.41308,0.92909 -1.80435,0.18566 -1.39352,-0.73838 z"
     fill="#ffffff"
     id="path18" />
  <path
     d="m 382.64122,400.60567 a 11.96709,11.96709 0 0 0 8.91629,-7.03165 c 0.40109,-0.93386 1.792,-0.18939 1.39352,0.73839 a 13.41011,13.41011 0 0 1 -9.84656,7.80075 0.815,0.815 0 0 1 -0.98537,-0.52212 0.79252,0.79252 0 0 1 0.52212,-0.98537 z"
     fill="#ffffff"
     id="path20" />
  <path
     d="m 804.95969,526.35776 a 73.18717,73.18717 0 0 1 -13.02051,18.79 q -1.78491,1.86 -3.66992,3.6 c -0.86963,0.81 -1.75977,1.6 -2.66992,2.38 h -61.58985 c 0.0498,-0.8 0.14014,-1.59 0.25977,-2.38 a 19.62727,19.62727 0 0 1 2.63037,-7.22 c 5.11963,-8.24 15.6499,-10.77 24.82959,-13.9 2.19043,-0.75 4.36035,-1.57 6.49024,-2.47 2.75,-1.15 5.45019,-2.42 8.08007,-3.8 a 107.37157,107.37157 0 0 0 31.02979,-24.48 c 0.28027,-0.32 0.55029,-0.64 0.82031,-0.97 a 102.01781,102.01781 0 0 0 9.68994,-13.41 c 0.21973,-0.34 0.41992,-0.69 0.62989,-1.04 0.12988,0.36 0.25976,0.73 0.39013,1.09 4.8999,14.28998 2.73975,30.03998 -3.8999,43.81 z"
     fill="#f0f0f0"
     id="path22" />
  <path
     d="m 809.01926,481.59775 c -0.0498,0.32 -0.0996,0.63995 -0.15967,0.94995 a 92.075,92.075 0 0 1 -5.8501,20.12 93.10183,93.10183 0 0 1 -4.18994,8.72 91.99328,91.99328 0 0 1 -10.60986,15.49 c -0.22022,0.26 -0.4502,0.52 -0.67041,0.78 q -2.60963,2.985 -5.46973,5.68 a 36.39572,36.39572 0 0 1 -10.05029,7 22.87341,22.87341 0 0 1 -9.58008,1.84 c -0.61963,0 -1.23974,-0.03 -1.86963,-0.0699 -2.52,-0.16 -5.10009,-0.5 -7.64013,-0.43006 a 16.30969,16.30969 0 0 0 -3.79981,0.5 13.13714,13.13714 0 0 0 -7.95019,6.57 18.58051,18.58051 0 0 0 -0.9502,1.89 c -0.0698,0.16 -0.13965,0.33 -0.19971,0.49 h -1.10009 a 21.1672,21.1672 0 0 1 1.08007,-2.38 c 0.21,-0.41 0.44,-0.81 0.67969,-1.2 a 13.78947,13.78947 0 0 1 9.15039,-6.56995 18.74092,18.74092 0 0 1 3.5,-0.31 c 2.58985,-0.04 5.18994,0.32 7.77,0.46 0.27,0.01 0.54,0.03 0.81006,0.03 0.33984,0.01 0.68994,0.01 1.02979,0.01 a 21.93711,21.93711 0 0 0 9.77978,-2.29 39.55755,39.55755 0 0 0 9.81006,-7.4 c 1.55029,-1.53 3.04,-3.13 4.46,-4.78 0.0703,-0.07 0.13037,-0.14 0.18994,-0.21 a 90.1187,90.1187 0 0 0 14.68018,-23.71 c 0.14013,-0.31 0.27,-0.62 0.3999,-0.93 a 91.45773,91.45773 0 0 0 5.57031,-19.35 c 0.0601,-0.31 0.10987,-0.63 0.15967,-0.94 0.10008,-0.64 1.1201,-0.60002 1.02,0.04 z"
     fill="#ffffff"
     id="path24" />
  <path
     d="m 787.14642,527.36708 a 13.66361,13.66361 0 0 0 17.66652,-0.967 c 0.47428,-0.4529 -0.20722,-1.21118 -0.68213,-0.75767 a 12.65223,12.65223 0 0 1 -16.43539,0.86589 c -0.5204,-0.39916 -1.06643,0.46188 -0.549,0.85875 z"
     fill="#ffffff"
     id="path26" />
  <path
     d="m 762.9885,541.47843 a 26.33556,26.33556 0 0 1 4.34145,-18.6951 c 0.3717,-0.541 -0.4875,-1.08937 -0.85876,-0.549 a 27.393,27.393 0 0 0 -4.47812,19.46313 c 0.0967,0.65 1.0916,0.42742 0.99543,-0.219 z"
     fill="#ffffff"
     id="path28" />
  <path
     d="m 802.54924,501.98858 a 7.73425,7.73425 0 0 1 -4.33762,-5.91985 c -0.0884,-0.65089 -1.08326,-0.42763 -0.99543,0.219 a 8.66688,8.66688 0 0 0 4.78405,6.55958 0.52675,0.52675 0 0 0 0.70388,-0.15488 0.51221,0.51221 0 0 0 -0.15488,-0.70388 z"
     fill="#ffffff"
     id="path30" />
  <path
     d="m 759.71946,516.39774 c -0.35987,2.96 -0.85987,5.87 -1.5,8.76 v 0.01 a 99.40641,99.40641 0 0 1 -4.87989,15.49 v 0.01 c -0.12988,0.35 -0.27,0.68 -0.41015,1.01 -0.99024,2.39 -2.06006,4.74 -3.2002,7.07 -0.38965,0.8 -0.79,1.59 -1.19971,2.38 h -40.12992 l -1.93994,-2.38 -0.68018,-0.84 a 17.74755,17.74755 0 0 1 0.46,-2.17 c 1.79981,-6.85 6.72022,-13.08 10.81983,-19.12994 a 103.89253,103.89253 0 0 0 7.8501,-13.76 107.23035,107.23035 0 0 0 10.05029,-38.23 c 0.0298,-0.43 0.0498,-0.86 0.0698,-1.29 a 102.40408,102.40408 0 0 0 -0.33007,-16.52 v -0.02 c -0.04,-0.4 -0.0801,-0.81 -0.12989,-1.21 0.31983,0.22 0.64014,0.42 0.94971,0.63 a 0.01,0.01 0 0 1 0.0102,0.01 h 0.01 c 12.47021,8.44 20.23,22.27 23.24023,37.23 0.01,0.03 0.01,0.06 0.02,0.09 a 73.48013,73.48013 0 0 1 0.91995,22.85994 z"
     fill="#f0f0f0"
     id="path32" />
  <path
     d="m 745.73947,504.05771 c -0.02,0.34 -0.04,0.67 -0.0698,1.01 -0.19043,2.63 -0.5,5.25 -0.94043,7.84 a 36.44744,36.44744 0 0 1 -3.81982,11.63995 22.80089,22.80089 0 0 1 -6.54,7.23 q -0.75,0.57 -1.52979,1.08 c -3.16992,2.07995 -6.70019,3.92 -9.1001,6.93994 a 12.67789,12.67789 0 0 0 -2.5,8.95 17.46159,17.46159 0 0 0 0.31983,2.38 h -1.02979 a 18.56527,18.56527 0 0 1 -0.29,-1.96 q -0.0154,-0.21 -0.0298,-0.42 a 13.70466,13.70466 0 0 1 3.37988,-10.34 c 2.54981,-2.81 5.96973,-4.58 9.08008,-6.67 0.23,-0.15 0.44971,-0.31 0.66992,-0.47 0.27979,-0.19 0.56006,-0.4 0.83008,-0.61 a 21.60772,21.60772 0 0 0 6.42969,-7.71 39.17487,39.17487 0 0 0 3.37012,-11.81 q 0.46508,-3.24 0.70019,-6.5 c 0,-0.1 0.01,-0.19 0.01,-0.29 v -0.01 a 90.78914,90.78914 0 0 0 -2.52979,-27.76 c -0.0903,-0.33 -0.18017,-0.65 -0.26025,-0.98 a 91.11565,91.11565 0 0 0 -7.18994,-18.79 v -0.02 c -0.14991,-0.28 -0.29,-0.56 -0.44,-0.84 -0.31,-0.57 0.52979,-1.16 0.83008,-0.58 0.1499,0.28 0.29,0.56 0.42969,0.84 a 0.01,0.01 0 0 1 0.0103,0.01 91.41005,91.41005 0 0 1 7.48,19.73 89.18458,89.18458 0 0 1 1.87012,9.34 91.96388,91.96388 0 0 1 0.85981,18.77011 z"
     fill="#ffffff"
     id="path34" />
  <path
     d="m 745.18264,505.0794 a 13.66361,13.66361 0 0 0 13.52355,-11.40854 c 0.106,-0.64717 -0.89467,-0.8423 -1.00082,-0.19427 a 12.65221,12.65221 0 0 1 -12.60141,10.5866 c -0.65583,-0.005 -0.5734,1.01085 0.0787,1.0162 z"
     fill="#ffffff"
     id="path36" />
  <path
     d="m 734.3899,530.89126 a 26.33559,26.33559 0 0 1 -7.78933,-17.54084 c -0.029,-0.65577 -1.04512,-0.5763 -1.0162,0.0787 a 27.39291,27.39291 0 0 0 8.14261,18.23635 c 0.46854,0.46076 1.12892,-0.31595 0.66292,-0.7742 z"
     fill="#ffffff"
     id="path38" />
  <path
     d="m 742.20133,475.54253 a 7.73425,7.73425 0 0 1 -7.02751,-2.11513 c -0.46247,-0.46647 -1.12239,0.31077 -0.66293,0.77421 a 8.66691,8.66691 0 0 0 7.76912,2.35713 0.52675,0.52675 0 0 0 0.46876,-0.54745 0.5122,0.5122 0 0 0 -0.54744,-0.46876 z"
     fill="#ffffff"
     id="path40" />
  <path
     d="m 56.17438,117.55843 c 0.96959,-35.76912 19.498,-72.7154 52.08982,-87.48409 a 164.86271,164.86271 0 0 0 10.92805,112.66052 c 6.53737,13.50809 15.215,27.85166 11.71171,42.444 -2.17966,9.07972 -8.94367,16.52047 -16.82536,21.527 -7.88221,5.00657 -16.88776,7.90154 -25.78206,10.74526 l -1.64458,1.652 C 69.07391,187.93611 55.2048,153.32755 56.17438,117.55843 Z"
     fill="#f0f0f0"
     id="path42" />
  <path
     d="m 108.66346,30.7102 a 140.91315,140.91315 0 0 0 -27.21637,82.31554 60.68211,60.68211 0 0 0 2.52009,18.84509 34.8038,34.8038 0 0 0 10.17314,15.23234 c 4.29687,3.89022 9.1426,7.37188 12.419,12.23886 a 21.31049,21.31049 0 0 1 2.71465,17.21547 c -1.77118,7.2739 -6.05036,13.47759 -10.44588,19.39885 -4.88037,6.57443 -10.05372,13.32589 -11.60056,21.56465 -0.18743,0.99824 -1.7254,0.64905 -1.53826,-0.34768 2.69125,-14.334 15.45782,-23.5653 20.69508,-36.74845 2.4438,-6.1515 3.04857,-13.07675 -0.37443,-18.98847 -2.99327,-5.16954 -7.98715,-8.76414 -12.37187,-12.66546 A 37.13848,37.13848 0 0 1 83.13597,134.2476 56.0991,56.0991 0 0 1 79.90065,115.56894 136.71109,136.71109 0 0 1 85.83059,73.25416 143.41208,143.41208 0 0 1 107.51074,29.6336 c 0.5983,-0.81659 1.74715,0.26534 1.15276,1.0766 z"
     fill="#ffffff"
     id="path44" />
  <path
     d="M 80.94887,103.48551 A 21.14148,21.14148 0 0 1 62.79453,82.99486 c -0.0176,-1.01453 1.55811,-1.08955 1.57574,-0.07367 a 19.57653,19.57653 0 0 0 16.92628,19.026 c 1.00531,0.13839 0.65188,1.67585 -0.34768,1.53826 z"
     fill="#ffffff"
     id="path46" />
  <path
     d="m 91.70185,145.41762 a 40.74842,40.74842 0 0 0 15.84767,-25.11416 c 0.191,-0.99754 1.729,-0.64867 1.53826,0.34767 a 42.38456,42.38456 0 0 1 -16.54406,26.10005 c -0.82037,0.60069 -1.65779,-0.73613 -0.84187,-1.33356 z"
     fill="#ffffff"
     id="path48" />
  <path
     d="m 92.1174,58.92991 a 11.9671,11.9671 0 0 0 11.23232,-1.6671 c 0.81235,-0.61079 1.64893,0.72674 0.84186,1.33355 a 13.41011,13.41011 0 0 1 -12.42186,1.87181 0.815,0.815 0 0 1 -0.59529,-0.943 0.79252,0.79252 0 0 1 0.943,-0.59529 z"
     fill="#ffffff"
     id="path50" />
  <path
     d="m 217.12547,83.24286 c -0.49641,0.39581 -0.99281,0.79162 -1.48857,1.20075 a 157.59907,157.59907 0 0 0 -18.53917,17.60309 c -0.448,0.48473 -0.89462,0.98272 -1.32772,1.47932 a 166.14545,166.14545 0 0 0 -31.1498,52.6444 161.348,161.348 0 0 0 -6.59078,23.61264 c -2.202,11.08523 -3.70762,23.27965 -9.2791,32.71238 a 27.68156,27.68156 0 0 1 -1.8895,2.85763 l -58.06594,5.62815 c -0.13838,-0.0534 -0.27613,-0.0936 -0.41516,-0.147 l -2.30812,0.33072 c 0.0533,-0.41971 0.11769,-0.85388 0.171,-1.27359 0.0299,-0.24359 0.0728,-0.48844 0.10273,-0.732 0.0241,-0.16279 0.0488,-0.32573 0.0611,-0.474 0.008,-0.0542 0.0163,-0.1085 0.0253,-0.14953 0.0124,-0.14828 0.0397,-0.2847 0.0533,-0.41971 0.353,-2.42785 0.7189,-4.857 1.112,-7.28877 -0.001,-0.0133 -0.001,-0.0133 0.0104,-0.0278 3.00625,-18.518 7.58488,-36.94774 14.81522,-54.09662 0.21771,-0.51588 0.43348,-1.045 0.67771,-1.5634 a 153.96371,153.96371 0 0 1 11.7411,-22.213 136.11109,136.11109 0 0 1 8.02164,-11.1946 113.18445,113.18445 0 0 1 26.14456,-23.84977 c 19.7603,-13.0144 43.46287,-19.56425 66.37087,-15.00482 0.58596,0.11706 1.15961,0.23522 1.74684,0.36551 z"
     fill="#f0f0f0"
     id="path52" />
  <path
     d="m 217.06636,83.99252 a 140.91307,140.91307 0 0 0 -71.29039,49.33822 60.6822,60.6822 0 0 0 -9.3339,16.564 34.80392,34.80392 0 0 0 -1.04823,18.28711 c 1.08863,5.69313 2.86147,11.39051 2.54723,17.24913 a 21.3105,21.3105 0 0 1 -8.19741,15.38 c -5.79358,4.74142 -12.94531,7.11836 -20.01989,9.19975 -7.855,2.311 -16.05044,4.58694 -22.24581,10.23382 -0.75066,0.6842 -1.76841,-0.52057 -1.01889,-1.20374 10.77889,-9.8246 26.53014,-9.50889 38.649,-16.88171 5.65486,-3.4403 10.30722,-8.6056 11.1334,-15.38666 0.72247,-5.92974 -1.10067,-11.80649 -2.25276,-17.56138 a 37.13841,37.13841 0 0 1 0.35873,-17.919 56.09921,56.09921 0 0 1 8.66263,-16.86176 136.71082,136.71082 0 0 1 30.21112,-30.21576 143.412,143.412 0 0 1 43.573,-21.77563 c 0.96936,-0.29178 1.23526,1.26377 0.27223,1.55365 z"
     fill="#ffffff"
     id="path54" />
  <path
     d="m 151.12205,125.41343 a 21.14146,21.14146 0 0 1 -2.15846,-27.29076 c 0.59676,-0.82066 1.9,0.06813 1.30249,0.88987 a 19.57653,19.57653 0 0 0 2.05971,25.382 c 0.71936,0.71575 -0.48849,1.73055 -1.20374,1.01888 z"
     fill="#ffffff"
     id="path56" />
  <path
     d="m 134.46168,165.36792 a 40.74847,40.74847 0 0 0 27.77391,-10.51087 c 0.753,-0.68152 1.771,0.523 1.01889,1.20374 a 42.38453,42.38453 0 0 1 -28.92353,10.87876 c -1.01668,-0.0143 -0.88045,-1.58586 0.13071,-1.57163 z"
     fill="#ffffff"
     id="path58" />
  <path
     d="m 186.86504,96.56251 a 11.96711,11.96711 0 0 0 9.97209,5.43154 c 1.01635,0.001 0.879,1.573 -0.13071,1.57163 a 13.4101,13.4101 0 0 1 -11.04512,-5.98429 0.815,0.815 0 0 1 0.0924,-1.11131 0.7925,0.7925 0 0 1 1.11131,0.09243 z"
     fill="#ffffff"
     id="path60" />
  <path
     d="M 629.59101,549.15545 H 463.5832 A 35.03577,35.03577 0 0 1 428.58711,514.15936 V 258.15155 a 35.03577,35.03577 0 0 1 34.99609,-34.9961 h 166.00781 a 35.03578,35.03578 0 0 1 34.9961,34.9961 v 256.00781 a 35.03578,35.03578 0 0 1 -34.9961,34.99609 z"
     fill="#ffffff"
     id="path62" />
  <path
     d="M 611.59101,523.7326 H 481.5832 A 34.53528,34.53528 0 0 1 447.08711,489.23651 V 283.07486 a 34.53528,34.53528 0 0 1 34.49609,-34.4961 h 130.00781 a 34.53529,34.53529 0 0 1 34.4961,34.4961 v 206.16165 a 34.53529,34.53529 0 0 1 -34.4961,34.49609 z"
     fill="#fa8500"
     id="path64" />
  <rect
     x="430.05951"
     y="448.69891"
     width="234"
     height="54"
     fill="#3f3d56"
     id="rect66" />
  <path
     d="M 98.30366,319.07452 58.6798,268.12978 a 31.728,31.728 0 0 1 5.56571,-44.52646 L 224.73619,98.77666 a 60.5949,60.5949 0 0 1 32.60182,-12.61793 l 13.536,-1.04807 116.55351,-68.26853 A 9.996,9.996 0 0 1 404.40585,6.54034 l 33.15288,42.62495 a 9.997,9.997 0 0 1 -14.218,13.87861 l -95.34249,95.34248 a 60.34767,60.34767 0 0 1 -22.94074,40.0764 L 142.83013,324.64023 a 31.72818,31.72818 0 0 1 -44.52647,-5.56571 z"
     fill="#ffffff"
     id="path68" />
  <path
     d="M 629.59101,549.15545 H 463.5832 A 35.03577,35.03577 0 0 1 428.58711,514.15936 V 258.15155 a 35.03577,35.03577 0 0 1 34.99609,-34.9961 h 166.00781 a 35.03578,35.03578 0 0 1 34.9961,34.9961 v 256.00781 a 35.03578,35.03578 0 0 1 -34.9961,34.99609 z m -166.00781,-324 a 33.03333,33.03333 0 0 0 -32.99609,32.9961 v 256.00781 a 33.03333,33.03333 0 0 0 32.99609,32.99609 h 166.00781 a 33.03333,33.03333 0 0 0 32.9961,-32.99609 V 258.15155 a 33.03334,33.03334 0 0 0 -32.9961,-32.9961 z"
     fill="#3f3d56"
     id="path70" />
  <path
     d="m 433.83396,12.19006 a 60.14854,60.14854 0 0 1 55.51,5.23249 c 16.74918,10.75321 29.22812,30.12631 33.39641,51.84669 2.04279,10.64465 2.78168,23.02582 10.22822,29.65246 5.454,4.85347 12.88044,4.97993 19.44423,7.32643 19.4113,6.93936 29.42921,33.87724 26.60218,57.27111 -2.82703,23.39387 -15.41425,43.54143 -28.92345,61.17967 4.29544,-9.478 -1.28153,-21.77024 -9.43928,-26.74412 -8.15775,-4.97388 -17.87974,-4.5558 -27.06281,-3.73282 -9.18307,0.82298 -18.75314,1.86606 -27.31634,-2.07914 -14.63242,-6.74138 -22.03956,-26.2758 -23.14457,-44.53922 -1.10501,-18.26342 2.54651,-36.46417 2.80834,-54.77025 0.26183,-18.30608 -3.80279,-38.35988 -16.4469,-49.2614 C 443.6751,38.55847 436.47971,35.88407 431.0707,30.28939 425.66169,24.69471 422.75845,14.0747 427.81252,8.04758"
     fill="#fa8500"
     id="path72" />
  <path
     d="m 637.05952,214.69891 c -0.52344,0 -1.04248,0.0186 -1.5586,0.048 a 27.00656,27.00656 0 0 0 -37.03027,-33.43835 c -4.32764,-12.18189 -13.62988,-20.60968 -24.41113,-20.60968 -10.78125,0 -20.0835,8.42779 -24.41114,20.60968 a 27.03631,27.03631 0 0 0 -23.17773,0 c -4.32764,-12.18189 -13.62988,-20.60968 -24.41113,-20.60968 -10.78125,0 -20.0835,8.42779 -24.41114,20.60968 a 27.00641,27.00641 0 0 0 -37.02441,33.45489 c -0.51807,-0.0395 -1.03906,-0.0646 -1.56445,-0.0646 -14.91162,0 -27,16.11774 -27,36 0,19.88226 12.08838,36 27,36 12.28125,0 22.64013,-10.93683 25.91553,-25.90131 a 27.01184,27.01184 0 0 0 30.67333,5.29163 c 4.32764,12.18188 13.62989,20.60968 24.41114,20.60968 12.28125,0 22.64013,-10.93683 25.91553,-25.90131 a 27.01184,27.01184 0 0 0 30.67333,5.29163 c 4.32764,12.18188 13.62989,20.60968 24.41114,20.60968 10.78125,0 20.08349,-8.4278 24.41113,-20.60968 a 27.00151,27.00151 0 1 0 11.58887,-51.39032 z"
     fill="#f0f0f0"
     id="path74" />
  <circle
     cx="493.05951"
     cy="286.69891"
     r="5"
     fill="#ffffff"
     id="circle76" />
  <circle
     cx="524.05951"
     cy="371.69891"
     r="5"
     fill="#ffffff"
     id="circle78" />
  <circle
     cx="556.05951"
     cy="313.69891"
     r="5"
     fill="#ffffff"
     id="circle80" />
  <circle
     cx="520.05951"
     cy="331.69891"
     r="5"
     fill="#ffffff"
     id="circle82" />
  <circle
     cx="583.05951"
     cy="385.69891"
     r="5"
     fill="#ffffff"
     id="circle84" />
  <circle
     cx="601.05951"
     cy="286.69891"
     r="5"
     fill="#ffffff"
     id="circle86" />
  <path
     d="m 663.58711,467.69891 v -2 a 93.27173,93.27173 0 0 0 0,-186.54346 v -2 a 95.27173,95.27173 0 0 1 0,190.54346 z"
     fill="#3f3d56"
     id="path88" />
  <path
     d="m 664.05952,449.69891 h -1 v -2.52149 h 2 v 0.51465 a 71.47249,71.47249 0 0 0 -1,-142.938 v -2 a 73.472415,73.472415 0 0 1 0,146.94483 z"
     fill="#3f3d56"
     id="path90" />
  <path
     d="M 106.67429,306.83126 72.60701,263.03067 a 26.91882,26.91882 0 0 1 4.72231,-37.77773 l 137.98454,-107.3218 a 51.74108,51.74108 0 0 1 27.83715,-10.774 l 11.7203,-0.90751 108.03483,-63.27886 29.04392,37.342 -88.41667,88.417 a 51.52947,51.52947 0 0 1 -19.60365,34.34031 L 144.45206,311.55322 a 26.91863,26.91863 0 0 1 -37.77777,-4.722 z"
     fill="#fa8500"
     id="path92" />
  <path
     d="m 427.88914,50.37593 c 3.31571,0.93034 7.5724,-0.0032 11.14086,-2.77869 5.23137,-4.06887 6.99845,-10.54784 3.94672,-14.47146 a 6.94635,6.94635 0 0 0 -2.02791,-1.75443 8.04153,8.04153 0 0 0 -1.12951,-7.19156 6.871,6.871 0 0 0 -1.37916,-1.3299 c 3.4408,-4.76269 4.731,-9.02 2.95783,-11.29974 a 5.04308,5.04308 0 0 0 -4.08493,-1.62119 7.55367,7.55367 0 0 0 -1.44055,-5.483 c -2.57688,-3.31311 -7.76414,-3.733 -12.46644,-1.33693 -0.0564,-0.07925 -0.10294,-0.16427 -0.1632,-0.24174 -3.05172,-3.92363 -9.76631,-3.80572 -14.99769,0.26315 a 13.93994,13.93994 0 0 0 -5.22486,7.94171 13.93992,13.93992 0 0 0 -8.98345,3.10925 c -5.23138,4.06887 -6.99846,10.54784 -3.94673,14.47147 0.1349,0.17344 0.28506,0.32882 0.43384,0.48652 l -0.062,0.06431 c -0.118,-0.18659 -0.23424,-0.37392 -0.37183,-0.55083 -3.05173,-3.92363 -9.76632,-3.80572 -14.9977,0.26315 a 13.93987,13.93987 0 0 0 -5.22485,7.94171 13.93993,13.93993 0 0 0 -8.98346,3.10925 c -5.23138,4.06887 -6.99845,10.54784 -3.94673,14.47147 3.05172,3.92363 9.76632,3.80571 14.99769,-0.26315 a 8.98706,8.98706 0 0 0 1.66848,15.2278 c -1.10511,2.66024 -1.21419,4.90209 -0.0897,6.34782 1.77318,2.27979 6.217,2.0772 11.68014,-0.0854 a 6.87074,6.87074 0 0 0 0.9495,1.66408 c 3.05173,3.92362 9.76632,3.80571 14.99769,-0.26315 a 13.94232,13.94232 0 0 0 5.22516,-7.94133 13.94236,13.94236 0 0 0 8.98316,-3.10964 15.49376,15.49376 0 0 0 3.14678,-3.28383 15.494,15.494 0 0 0 3.95738,-2.24165 c 3.56845,-2.77545 5.52105,-6.67138 5.4355,-10.11407 z"
     fill="#f0f0f0"
     id="path94" />
  <path
     d="M 98.30366,319.07452 58.6798,268.12978 a 31.728,31.728 0 0 1 5.56571,-44.52646 L 224.73619,98.77666 a 60.5949,60.5949 0 0 1 32.60182,-12.61793 l 13.536,-1.04807 116.55351,-68.26853 A 9.996,9.996 0 0 1 404.40585,6.54034 l 33.15288,42.62495 a 9.997,9.997 0 0 1 -14.218,13.87861 l -95.34249,95.34248 a 60.34767,60.34767 0 0 1 -22.94074,40.0764 L 142.83013,324.64023 A 31.72818,31.72818 0 0 1 98.30366,319.07452 Z M 402.82715,7.76822 a 7.99552,7.99552 0 0 0 -13.21121,8.94966 l 0.50692,0.86331 -118.635,69.48775 -13.99516,1.08368 a 58.60218,58.60218 0 0 0 -31.52859,12.20275 L 65.47339,225.18202 A 29.72788,29.72788 0 0 0 60.2585,266.9019 l 39.62387,50.94474 a 29.72768,29.72768 0 0 0 41.71988,5.21489 l 162.2274,-126.17745 a 58.36536,58.36536 0 0 0 22.22785,-39.08737 l 0.0426,-0.34055 97.20674,-97.20691 0.707,0.7086 a 7.99653,7.99653 0 0 0 11.96621,-10.56468 z"
     fill="#3f3d56"
     id="path96" />
  <rect
     x="-0.79726672"
     y="216.94478"
     width="72"
     height="126"
     transform="rotate(-37.87511)"
     fill="#3f3d56"
     id="rect98" />
  <path
     d="m 133.96546,171.91033 76.12892,97.8796 55.25456,-42.976 -76.12892,-97.8796 z"
     fill="#3f3d56"
     id="path100" />
  <circle
     cx="356.14807"
     cy="77.855919"
     r="5"
     fill="#ffffff"
     id="circle102" />
  <circle
     cx="316.68048"
     cy="85.749527"
     r="5"
     fill="#ffffff"
     id="circle104" />
  <circle
     cx="319.04861"
     cy="118.11297"
     r="5"
     fill="#ffffff"
     id="circle106" />
  <circle
     cx="279.58102"
     cy="126.00658"
     r="5"
     fill="#ffffff"
     id="circle108" />
  <circle
     cx="485.05951"
     cy="66.698898"
     r="5"
     fill="#ffffff"
     id="circle110" />
  <circle
     cx="503.05951"
     cy="93.698898"
     r="5"
     fill="#ffffff"
     id="circle112" />
  <circle
     cx="503.05951"
     cy="138.6989"
     r="5"
     fill="#ffffff"
     id="circle114" />
  <polygon
     transform="translate(52)"
     points=""
     fill="#f2f2f2"
     id="polygon116" />
  <path
     d="m 430.1533,173.50855 c -5.53171,0.17315 -23.24738,1.33352 -32.45121,9.064 -10.99524,9.23529 -10.99569,18.0055 -5.66758,24.34912 5.32811,6.34362 13.96639,7.85835 24.96212,-1.3769 9.32062,-7.82832 13.513,-25.42051 14.57462,-30.60051 z"
     fill="#f2f2f2"
     id="path118" />
  <polygon
     transform="translate(52)"
     points=""
     fill="#f2f2f2"
     id="polygon120" />
  <path
     d="m 572.32629,62.30727 c 3.51955,4.27112 15.27056,17.57921 27.01531,20.13477 14.0309,3.05282 20.97066,-2.30967 22.732,-10.40459 1.76134,-8.09492 -2.32226,-15.85626 -16.35343,-18.90949 -11.89362,-2.58812 -28.37715,4.852 -33.125,7.17946 z"
     fill="#f2f2f2"
     id="path122" />
  <polygon
     transform="translate(52)"
     points=""
     fill="#f2f2f2"
     id="polygon124" />
  <path
     d="m 662.28359,193.31014 c 0.65015,5.49609 3.33589,23.0454 11.83217,31.54735 10.15021,10.15674 18.8877,9.3999 24.74756,3.54394 5.85986,-5.85596 6.623,-14.59278 -3.52717,-24.75 -8.60389,-8.60986 -26.49238,-11.26757 -31.7447,-11.87792 z"
     fill="#f2f2f2"
     id="path126" />
</svg>
